<?xml version="1.0" encoding="utf-8"?>
<!-- Generator: Adobe Illustrator 22.0.0, SVG Export Plug-In . SVG Version: 6.00 Build 0)  -->
<svg version="1.1" id="Capa_1" xmlns="http://www.w3.org/2000/svg" xmlns:xlink="http://www.w3.org/1999/xlink" x="0px" y="0px"
	 viewBox="0 0 500 500" style="enable-background:new 0 0 500 500;" xml:space="preserve">
<style type="text/css">
	.st0{fill:#AD0909;}
	.st1{fill:#FFFFFF;}
</style>
<g>
	<path d="M285.5,166.1c8.5,0.7,17.1,1.4,25.6,2.3c1.8,0.2,3.5,1,5.2,1.6c2.1,0.7,2.2,2.1,2.2,4.2c-0.1,6.1-2.3,11.5-4.8,16.9
		c-2,4.2-5,7.3-9.9,7.9c-4.5,0.5-9,0.8-13.6,1.2c-5,0.5-9.9,1.4-14.9,1.7c-14.3,0.9-28.5,1.6-42.8,2.3c-3.9,0.2-8,0.8-11.6-0.2
		c-13.2-3.5-26.8-1.2-40-3.9c-6.9-1.4-12.2-4.9-14.7-11.6c-1.8-4.6-3.1-9.4-4.2-14.3c-0.3-1.1,0.8-2.9,1.8-3.7
		c1.2-0.9,2.9-1.4,4.4-1.5c10.3-0.9,20.7-1.7,31-2.5c4.9-0.4,9.9-0.5,14.8-1.1c1.1-0.1,2.4-1.5,2.9-2.7c4-10.1,6.9-20.5,8.4-31.4
		c1.2-8.5,3.7-17,6.5-25.2c1.3-3.6,4.7-6.5,7.6-9.3c2.1-2.1,8.8,0.6,11.1,3.9c4.8,6.9,6.9,14.8,8.4,23c0.6,3.4,1.9,6.8,2.3,10.2
		c0.9,9.4,2.7,18.6,7,27.2c1.4,2.8,2.8,5,6.3,5c3.6,0,7.2,0.3,10.9,0.5C285.4,166.5,285.4,166.3,285.5,166.1z M263,172.1
		c-3.7-8.1-3.6-16.5-7.2-23.9c-0.5,0.1-0.9,0.2-1.4,0.4c1.6,7.2,3.3,14.4,4.9,21.6c-0.3,0.2-0.7,0.3-1,0.5c-0.5-0.6-1.6-1.2-1.5-1.7
		c0.2-3.8-3.9-6.4-2.7-10.5c0.2-0.7-0.8-1.7-1.2-2.5c-0.3-0.6-0.8-1.4-0.6-1.9c1.2-3.1-2.5-7.1,1.6-9.7c0.1-0.1,0.1-0.5,0.1-0.7
		c-0.3-3.7-0.4-7.4-0.9-11c-0.7-5.2-1.7-10.4-2.6-15.6c-0.4-2.3-1.9-5.1-1.1-6.6c2.4-4.3-0.9-6.1-2.5-8.7c-0.2,0.3-0.4,0.6-0.6,0.9
		c-1.9-0.8-3.9-1.6-5.3-2.1c-1.4,1.3-2.7,2.3-3.5,3.5c-1.2,2-2.1,4.2-2.9,6.3c-0.7,2.1-0.9,4.3-1.6,6.4c-0.8,2.2-2.1,4.1,0.2,6.4
		c2,2,1.7,5.8-0.3,6.7c-3.5,1.5-2,3.6-1.3,5.9c0.3,1.1,0.5,2.3,0.5,3.4c-0.1,1.3-0.5,2.6-0.8,3.9c-1.2,5.9-2.5,11.8-3.7,17.7
		c-0.1,0.5-0.3,0.9-0.6,1.3c-1.7,3.1-3.4,6.3-5.4,10C235.9,174.7,249,174.6,263,172.1z M272.6,179c-9.4,0-18.3,0-28.3,0
		c4.9,7.7,6.8,16.1,15,20.2C263.8,192.2,268.2,185.7,272.6,179z M239.9,179.7c-0.3-0.4-0.5-0.8-0.8-1.2c-6.9,0-13.8,0-20.7,0
		c-4.1,0-5,1.5-3,5.2c2.6,4.8,5.5,9.4,8.5,14.5C229.4,191.8,234.6,185.7,239.9,179.7z M209.5,178.2c-8.5,0-16.5,0-24.5,0
		c0.2,3.1-0.2,6.6,2.9,9c0.2,0.2,0.2,0.7,0.3,1c1.1,2.4,2.2,4.9,3.6,8C197.7,189.7,205.4,186.4,209.5,178.2z M277.7,178.4
		c0.9,2.6,1.1,4.8,2.2,6.4c2,2.8,4.6,5.1,6.8,7.7c1.5,1.8,2.8,1.5,3.5-0.4c1.7-4.7,3.3-9.4,5.1-14.9
		C289,177.7,283.6,178,277.7,178.4z M301.3,177.3c2.3,5,6.1,7.9,11.4,10.1c0.2-2.5,0.5-4.4,0.4-6.3c-0.2-5.6-0.2-5.6-5.8-4.8
		C305.3,176.5,303.3,176.9,301.3,177.3z M166.5,184.4c4.4-2.6,7.9-4.8,11.5-6.9c-0.1-0.3-0.2-0.7-0.4-1c-4.1-0.6-8.1-1.3-12.9-2
		C165.4,177.9,165.9,180.6,166.5,184.4z"/>
	<path d="M179.6,252.4c0.7-0.2,1.4-0.6,2-0.5c4.7,0.4,9.3,0.7,14,1.3c1.3,0.2,3.1,0.6,3.7,1.6c3.7,5.3,9.1,8.5,14.4,11.8
		c2.4,1.5,4.3,3.7,6.8,5.9c-2.1-9.3-10-12.9-15.8-18.2c0.3-0.4,0.5-0.8,0.8-1.3c1.5,0,3,0,4.5,0c6.7,0.2,13.3,0.5,20,0.7
		c2.7,0,4.9,0.6,6.6,3c0.7,1,2,1.8,3,2.5c1.9,1.4,3.8,2.7,5.8,3.9c1.1,0.6,2.3,1,3.7,1.6c1.3-5.8-5-6.8-5.7-10.8c19.9-1,39.8-2,60-3
		c-0.5,3-2.4,3.8-4.7,4.1c-8.4,1.1-16.8,2.2-25.2,3.4c-3.1,0.4-6.1,1.2-9.1,1.8c0,0.3-0.1,0.7-0.1,1c2.6,0.8,5.3,1.6,7.9,2.4
		c0,0.4,0.1,0.7,0.1,1.1c-4.8,3.3-9.6,6.7-14.4,10c-1.6,1.1-3.5,1.7-5.1,2.8c-3,2-5.9,1.4-7.6-1.3c-2.3-3.6-5.5-5.6-9.2-7.4
		c-2-1-3.7-2.6-6.2-3.4c4.5,5.5,8.9,10.9,13.7,16.8c-3.9,2.4-7.3,4.6-10.9,6.6c-0.7,0.4-2,0.2-2.7-0.3c-7-4.4-13.9-8.7-20.7-13.4
		c-2.3-1.6-4.2-3.8-6.6-5.5c0.1,4.6,2.3,7.9,5.5,10.9c5.4,5.1,10.8,10.2,16.7,15.9c-5.6,4-10.9,7.7-16.6,11.7
		c-0.4-1.6-0.8-2.5-0.9-3.4c-1-7.4-3.9-13.9-9.1-19.3c-0.5-0.5-1-1.2-1.2-1.8c-1.1-4.7-3.7-8.4-7-11.9c-2-2.1-2.8-5.3-4.2-7.9
		C183.7,260.2,181.7,256.4,179.6,252.4z"/>
	<path d="M117.1,324.9c0,10.2-0.1,20.4,0.1,30.6c0,2.3,1.3,4.6,2.1,7.3c-2.3,0-4.7,0-6.2,0c0.5-4.9,1.2-9.5,1.3-14.2
		c0.2-11,0.1-22.1,0-33.1c0-2.2,0.9-5.2-2.3-5.6c-1.6-0.2-4.5,0.8-4.9,1.9c-0.8,2.3-0.4,5-0.1,7.5c0.1,0.7,1.6,1.3,2.7,2.1
		c-3.3,2.3-5.9,1.8-8.2,0c-2.8-2.1-3.9-6.1-2.7-9.2c1.4-3.7,4.4-5.5,8.2-5.7c4.6-0.2,9.2,0,13.8-0.1c2.3-0.1,2.8,1.4,3.2,3.1
		c1.7,7.3,3.5,14.6,5.3,21.9c0.2,0.9,0.6,1.8,1.6,2.7c1-5,2.1-10,3.1-15c0.6-3.3,1-6.7,1.8-10c0.3-1.1,1.7-2.5,2.7-2.6
		c3-0.4,6-0.1,8.6-0.1c0,18.9,0,37.5,0,56.5c-3.6,0-7.2,0-10.6,0c0-13.5,0-26.9,0-41.5c-2.8,14.5-5.5,27.9-8.1,41.3
		c-0.5,0-1,0.1-1.5,0.1c-3-12.7-6-25.3-9-38C117.7,324.7,117.4,324.8,117.1,324.9z"/>
	<path d="M310.9,315.7c-0.3,3.4-0.7,5.9-0.8,8.4c-0.1,5.3,0,5.4,5.9,4.4c0-3.9,0-7.8,0-12.2c2.7,0,5.6,0,8.6,0c0,15.4,0,30.8,0,46.5
		c-2.8,0-5.8,0-8.8,0c0-10.4,0-20.7,0-31.3c-4,0.1-5.6,2.7-5.7,5.8c-0.3,8.3-0.1,16.7-0.1,25.4c-2.3,0-5.3,0-8,0
		c0-13.7,0-27.2-0.1-40.8c0-1.2-1.1-2.3-1.6-3.5c-1.4,0.7-3.3,1.1-4.1,2.2c-2,2.9-0.5,5.5,2,7.5c-3.3,2.1-6.3,1.3-8.2-2.1
		c-1.9-3.4-0.8-7.7,2.7-9.3c1.4-0.6,3-0.9,4.6-1C301.8,315.7,306.3,315.7,310.9,315.7z"/>
	<path d="M355.3,336.2c0.1,9.5-1.5,17.6-7.1,24.5c-3.8,4.7-7.5,4.7-11.4,0c-7.9-9.5-9.7-28.2-3.8-39c4.6-8.5,13.5-8.7,18.7-0.6
		C354.9,326,355.6,331.5,355.3,336.2z M341.8,361.1c0.5,0,1.1-0.1,1.6-0.1c0.6-2.1,1.7-4.3,1.8-6.4c0.4-9.1,0.5-18.2,0.5-27.3
		c0-2.1-0.5-4.3-1.1-6.4c-0.3-1-1.4-1.8-2.1-2.6c-0.7,0.9-1.5,1.7-2.1,2.6c-0.4,0.6-0.6,1.4-0.6,2.1c0,10.9-0.1,21.8,0.1,32.7
		C340,357.5,341.2,359.3,341.8,361.1z"/>
	<path d="M153.7,336.9c1.4-5.1,2.6-10.2,4.4-15.1c1.5-4.2,5-6,9.4-6.3c4.3-0.3,7.1,2.1,9.1,5.5c3.9,6.4,4.4,13.6,3.6,20.8
		c-0.7,6.4-2.3,12.7-6.4,18c-4.4,5.7-8.7,5.7-12.8-0.2c-4.6-6.7-6.6-14.2-6.4-22.3C154.4,337.1,154.1,337,153.7,336.9z M167,361.1
		c0.4,0,0.8,0,1.1,0c0.6-1.5,1.8-2.9,1.8-4.4c0.3-11,0.5-21.9,0.4-32.9c0-1.9-1.9-3.7-3-5.6c-1,2-2.5,3.8-2.8,5.9
		c-1.5,11-1.1,22,0.6,32.9C165.4,358.5,166.4,359.8,167,361.1z"/>
	<path d="M237.9,328.8c-3.8,1.4-7.1,0-8.3-3.7c-1.3-3.9,0.7-8.4,4.6-8.9c5.3-0.6,10.7-0.4,16-0.2c0.8,0,1.9,2,2.1,3.2
		c2.3,12.6,4.4,25.2,6.7,37.8c0.3,1.8,1.3,3.6,2.1,5.7c-3.7,0-7.2,0-10.7,0c0.3-10-1.5-19.5-4.5-28.8c-0.3-0.8-1.4-1.4-2.2-2.2
		c-3.2,5-5.4,25.8-3.3,30.9c-2.5,0-4.8,0-6.9,0c1.1-3.6,2.5-7.3,3.3-11.1c1.9-9.3,3.6-18.7,5.1-28.1c0.2-1.5-0.3-3.2-0.9-4.7
		c-0.2-0.4-2.4-0.5-2.9,0c-1.1,1.3-2.3,2.9-2.3,4.5C235.8,325.1,237.1,326.8,237.9,328.8z"/>
	<path d="M160.9,221.3c5.8,11.3,20.5,10.3,30.8,6.4c7.7-2.9,15.8-5.2,23.9-6.7c4.9-0.9,10.2,0.2,15.3,0.7c2.7,0.3,5.3,1.4,5.6,4.7
		c0.3,4.4-2.2,8.4-5.4,9.3c-1.5,0.4-2.9,1.6-4.3,1.5c-3.1-0.1-6.6-0.1-9.3-1.4c-5.6-2.6-11.4-4.3-17.5-4.4
		c-4.7-0.1-9.4,0.4-14.1,1.2c-7.2,1.4-13.7-0.5-20.1-3.5C162.6,227.7,160.7,225,160.9,221.3z"/>
	<path d="M321.2,219.6c0.1,4.3-2.4,7.5-6,9.4c-9.4,5-19.2,3.1-29.1,2.8c-6.3-0.2-13.2,0.6-18.9,3.1c-5.9,2.5-11.1,3-16.8,1
		c-3.7-1.3-4.8-4.5-4.9-8.1c0-3.7,3.2-4.7,5.6-5.9c4.3-2.1,8.7-2,13.3-0.6c4,1.2,8.2,1.4,12.3,2c0.7,0.1,1.5,0.1,2.1,0.5
		c8,5,17.1,5.4,26,6.7c4.5,0.7,13-4.5,15-8.6C320.3,221.1,320.6,220.5,321.2,219.6z"/>
	<path d="M200.9,329.1c-0.9-2.5-1.6-5.1-2.7-7.5c-0.6-1.3-1.6-2.8-2.9-3.4c-0.9-0.4-2.8,0-3.6,0.8c-0.7,0.7-1,2.6-0.6,3.6
		c1.2,2.5,2.6,4.9,4.4,7c5.8,6.7,9.8,14.1,10.6,23.1c0.7,7.8-0.6,15.2-5.1,21.8c-3.1,4.4-9.5,6.4-14.7,4.7c-0.6-0.2-1.4-0.9-1.4-1.4
		c-0.1-4.1-0.1-8.1-0.1-12.2c0.5-0.1,1-0.2,1.5-0.3c0.7,2.1,1.3,4.4,2.3,6.4c0.9,1.8,1.8,4.2,3.4,4.9c2.6,1.2,4.6-1,5.8-3.2
		c4.1-7.7,4.7-15.9,0.8-23.7c-2.6-5.3-6.4-9.9-9.5-15c-1.7-2.9-3.9-6.1-4.2-9.3c-0.8-6.8,4.7-11.1,11.5-9.7c1.8,0.3,3.5,0.6,5.7,0.9
		c0,3.9,0,8.1,0,12.3C201.7,328.9,201.3,329,200.9,329.1z"/>
	<path d="M361.5,365.8c0.6,1.7,1.3,3.3,1.7,5.1c0.6,2.4,0.5,5.3,3.8,5.9c3.3,0.6,5-1.5,6.1-4c4.9-10.7,3-20.8-3.3-30.3
		c-2.7-4-5.8-7.8-8.5-11.8c-2.8-4.1-2.7-7.9,0-11.5c2.7-3.7,6.4-4.4,10.7-3.4c1.6,0.4,3.3,0.5,5.3,0.7c0,4.1,0,8.2,0,12.4
		c-0.3,0.1-0.6,0.3-0.8,0.4c-0.7-1.1-1.5-2.1-1.9-3.3c-0.8-1.9-1-4.2-2.2-5.7c-0.9-1.1-3.2-2.2-4.3-1.8c-1.1,0.4-2.1,2.9-1.9,4.3
		c0.2,1.8,1.6,3.5,2.7,5c2.3,3.2,5.3,6.1,7.2,9.6c6.2,11.5,6.8,23.3,1.2,35.2c-2.9,6.1-9.3,8.7-15.7,6.7c-0.7-0.2-1.6-1-1.6-1.6
		c-0.1-3.8-0.1-7.6-0.1-11.5C360.5,366,361,365.9,361.5,365.8z"/>
	<path d="M282.9,334.1c-3.2-2.3-3.3-5.2-3.7-8c-0.2-1.9,0-3.9-0.6-5.7c-0.3-0.9-1.9-2.2-2.7-2.1c-1.1,0.2-2.8,1.5-2.9,2.5
		c-1.1,12.1-2.1,24.1,0.7,36.1c0.4,1.6,2.1,2.8,3.3,4.2c1.2-1.3,3-2.5,3.5-4.1c1-3.6,1.3-7.3,2.8-11.3c0.5,1.1,1.4,2.3,1.3,3.3
		c-0.4,3.2-0.8,6.6-2.1,9.5c-1,2.2-3.4,5-5.3,5.1c-2.4,0.1-6.1-1.5-7.2-3.6c-2.8-4.9-5.4-10.2-6.2-15.7c-0.9-6.1-0.3-12.6,0.9-18.6
		c1-4.9,4.1-9.3,9.8-10.1c2.7-0.4,5.5,0.3,8.6,0.5C282.9,321.7,282.9,327.6,282.9,334.1z"/>
	<path d="M230,314c-2.2-0.3-4.5-0.6-7.1-0.9c0,16.7,0,33,0,49.7c-2.9,0-6,0-8.9,0c1.5-15.6,0.3-30.9,0.8-46.3
		c0.1-3.3-1.5-3.6-4.1-3.1c-1.2,0.2-2.5,0.5-3.7,0.7c-0.2-0.4-0.4-0.8-0.6-1.3c1.2-0.7,2.3-2.1,3.5-2.1c5.7-0.2,11.4-0.3,17.1,0
		c1.3,0,2.5,1.4,3.7,2.1C230.5,313.2,230.2,313.6,230,314z"/>
	<path d="M302,395.8c3.8,0.1,7.9,1.7,9.1-4.5c1.3,5.6-0.4,7.8-5,7.7c-2.7-0.1-5.3-0.7-8-1c1.3-2.1,2.5-4.2,3.9-6.3
		c2.1-3.2,4.2-6.4,6.3-9.6c-0.2-0.4-0.4-0.8-0.6-1.2c-2.9,0.8-5.7,1.7-8.5,2.5c-0.7-4.1,0.3-5.1,4.7-4.5c2.9,0.4,5.8,0.4,9.6,0.7
		C309.5,385.2,305.9,390.4,302,395.8z"/>
	<path d="M314.8,399c4.3-6.4,8-11.7,11.6-17.1c-0.2-0.4-0.4-0.8-0.6-1.1c-2.9,0.9-5.8,1.8-8.6,2.7c-0.5-4.5,0.1-5,5.4-4.5
		c2.6,0.3,5.3,0.1,8,0.1c0.3,0.3,0.5,0.6,0.8,1c-3.7,5.2-7.4,10.3-11.3,15.7c3.5,0.4,7.1,1.2,9-3.8c0.8,5.2-0.6,7.1-4.8,7.1
		C321.4,399,318.6,399,314.8,399z"/>
	<path d="M280.4,398.7c-3,0-5.2,0-7,0c0.7-3.4,1.9-6.7,1.8-9.9c-0.1-2.9,3.1-6.5-2-9.2c2.7-0.4,4.8-1,6.9-1c2.7,0,5.4,0.7,6.2,3.9
		c0.6,2.6-2,6.2-4.9,7.3C276.9,391.4,276.3,394.5,280.4,398.7z M278.4,388.1c3.3,0.1,4.2-1.4,4.3-3.8c0.1-2.1-0.7-3.4-3.5-3.5
		C278.9,383.2,278.7,385.5,278.4,388.1z"/>
	<path d="M343.1,377.8c2.1,7.6,3.8,14,5.7,20.7c-1.8,0.8-3.4,0.5-4-2.3c-0.2-0.7-0.2-1.4-0.5-2.1c-0.5-1.7-0.1-4.2-3.2-3.8
		c-2.8,0.4-4,2.1-4.3,4.6c-0.1,1,0.3,2.1,0.5,3.6c-1.4,0-2.7,0-4.7,0C336.2,391.7,339.4,385.3,343.1,377.8z"/>
	<path d="M289.4,398.7c0.5-6.6,1-12.9,1.6-19.4c0.7,0,2.2,0,3.6,0c-2.4,6.4-1.7,12.8-1,19.4C292,398.7,290.3,398.7,289.4,398.7z"/>
</g>
</svg>
